# xmcd CD database file
#
# Track frame offsets:
#	150
#	26880
#	42740
#	63410
#	88335
#	106827
#	123377
#	133930
#	148162
#	169027
#	188075
#	211695
#
# Disc length: 3118 seconds
#
# Revision: 0
# Processed by: cddbd v1.5.1PL0 Copyright (c) Steve Scherf et al.
# Submitted via: CDex 1.51
#
DISCID=b50c2c0c
DTITLE=유키 구라모토 - Heartstrings
DYEAR=1900
DGENRE=New Age
TTITLE0=마음의 줄 (Heartstrings)
TTITLE1=어린 시절의 약속 (Innocent Promise)
TTITLE2=온화한 시간 속에서 (In A Gentile Time)
TTITLE3=여러가지 사랑 (Various Kinds of Love)
TTITLE4=슬플 때에는 (When You Feel Sorrow)
TTITLE5=고요한 호수 (Calming (Medicine) Lake)
TTITLE6=고래를 본날 (Encounter On The Sea)
TTITLE7=Love Song
TTITLE8=물가의 정경 (Barcarolle For A Small Canal)
TTITLE9=강가의 나무로 만든 집들 (Old Wooden Houses By The River)
TTITLE10=흔들리는 작은 배 (Dreaming Little Boat)
TTITLE11=세컨드 로망스 (Second Romance)
EXTD=
EXTT0=
EXTT1=
EXTT2=
EXTT3=
EXTT4=
EXTT5=
EXTT6=
EXTT7=
EXTT8=
EXTT9=
EXTT10=
EXTT11=
PLAYORDER=
